<mxfile host="app.diagrams.net" modified="2021-10-15T07:56:15.634Z" agent="5.0 (Windows NT 10.0; Win64; x64) AppleWebKit/537.36 (KHTML, like Gecko) Chrome/96.0.4664.9 Safari/537.36" etag="Ug8g8LhuZ9gyVoUpo3On" version="15.5.2" type="github">
  <diagram id="yBvkMfIViwi_Tb_b40qr" name="Page-1">
    <mxGraphModel dx="1422" dy="1882" grid="1" gridSize="10" guides="1" tooltips="1" connect="1" arrows="1" fold="1" page="1" pageScale="1" pageWidth="827" pageHeight="1169" math="0" shadow="0">
      <root>
        <mxCell id="0" />
        <mxCell id="1" parent="0" />
        <mxCell id="9bpLhuy6PvnF7bamDNjo-27" value="spare part buying system" style="shape=umlFrame;whiteSpace=wrap;html=1;fillColor=none;align=center;width=160;height=40;" vertex="1" parent="1">
          <mxGeometry x="160" y="-950" width="680" height="2020" as="geometry" />
        </mxCell>
        <mxCell id="9bpLhuy6PvnF7bamDNjo-16" style="edgeStyle=none;rounded=0;orthogonalLoop=1;jettySize=auto;html=1;endArrow=none;endFill=0;" edge="1" parent="1" target="9bpLhuy6PvnF7bamDNjo-13">
          <mxGeometry relative="1" as="geometry">
            <mxPoint x="100" y="470" as="sourcePoint" />
          </mxGeometry>
        </mxCell>
        <mxCell id="9bpLhuy6PvnF7bamDNjo-22" style="edgeStyle=none;rounded=0;orthogonalLoop=1;jettySize=auto;html=1;entryX=0;entryY=0.5;entryDx=0;entryDy=0;endArrow=none;endFill=0;" edge="1" parent="1" source="9bpLhuy6PvnF7bamDNjo-1" target="9bpLhuy6PvnF7bamDNjo-21">
          <mxGeometry relative="1" as="geometry" />
        </mxCell>
        <mxCell id="9bpLhuy6PvnF7bamDNjo-29" style="edgeStyle=none;rounded=0;orthogonalLoop=1;jettySize=auto;html=1;entryX=0;entryY=0.5;entryDx=0;entryDy=0;endArrow=none;endFill=0;" edge="1" parent="1" target="9bpLhuy6PvnF7bamDNjo-28">
          <mxGeometry relative="1" as="geometry">
            <mxPoint x="100" y="470" as="sourcePoint" />
          </mxGeometry>
        </mxCell>
        <mxCell id="9bpLhuy6PvnF7bamDNjo-1" value="owner&lt;br&gt;" style="shape=umlActor;verticalLabelPosition=bottom;verticalAlign=top;html=1;outlineConnect=0;" vertex="1" parent="1">
          <mxGeometry x="70" y="440" width="30" height="60" as="geometry" />
        </mxCell>
        <mxCell id="9bpLhuy6PvnF7bamDNjo-18" style="edgeStyle=none;rounded=0;orthogonalLoop=1;jettySize=auto;html=1;endArrow=none;endFill=0;entryX=1;entryY=0.5;entryDx=0;entryDy=0;exitX=0;exitY=1;exitDx=0;exitDy=0;exitPerimeter=0;" edge="1" parent="1" source="9bpLhuy6PvnF7bamDNjo-2" target="9bpLhuy6PvnF7bamDNjo-13">
          <mxGeometry relative="1" as="geometry" />
        </mxCell>
        <mxCell id="9bpLhuy6PvnF7bamDNjo-20" style="edgeStyle=none;rounded=0;orthogonalLoop=1;jettySize=auto;html=1;endArrow=none;endFill=0;" edge="1" parent="1" source="9bpLhuy6PvnF7bamDNjo-2" target="9bpLhuy6PvnF7bamDNjo-19">
          <mxGeometry relative="1" as="geometry" />
        </mxCell>
        <mxCell id="9bpLhuy6PvnF7bamDNjo-47" style="edgeStyle=none;rounded=0;orthogonalLoop=1;jettySize=auto;html=1;entryX=1;entryY=0.5;entryDx=0;entryDy=0;startArrow=none;startFill=0;endArrow=none;endFill=0;" edge="1" parent="1" source="9bpLhuy6PvnF7bamDNjo-2" target="9bpLhuy6PvnF7bamDNjo-44">
          <mxGeometry relative="1" as="geometry" />
        </mxCell>
        <mxCell id="9bpLhuy6PvnF7bamDNjo-48" style="edgeStyle=none;rounded=0;orthogonalLoop=1;jettySize=auto;html=1;entryX=1;entryY=0.5;entryDx=0;entryDy=0;startArrow=none;startFill=0;endArrow=none;endFill=0;" edge="1" parent="1" source="9bpLhuy6PvnF7bamDNjo-2" target="9bpLhuy6PvnF7bamDNjo-40">
          <mxGeometry relative="1" as="geometry" />
        </mxCell>
        <mxCell id="9bpLhuy6PvnF7bamDNjo-49" style="edgeStyle=none;rounded=0;orthogonalLoop=1;jettySize=auto;html=1;startArrow=none;startFill=0;endArrow=none;endFill=0;" edge="1" parent="1" source="9bpLhuy6PvnF7bamDNjo-2" target="9bpLhuy6PvnF7bamDNjo-42">
          <mxGeometry relative="1" as="geometry" />
        </mxCell>
        <mxCell id="9bpLhuy6PvnF7bamDNjo-50" style="edgeStyle=none;rounded=0;orthogonalLoop=1;jettySize=auto;html=1;entryX=1;entryY=0.5;entryDx=0;entryDy=0;startArrow=none;startFill=0;endArrow=none;endFill=0;" edge="1" parent="1" source="9bpLhuy6PvnF7bamDNjo-2" target="9bpLhuy6PvnF7bamDNjo-39">
          <mxGeometry relative="1" as="geometry" />
        </mxCell>
        <mxCell id="9bpLhuy6PvnF7bamDNjo-51" style="edgeStyle=none;rounded=0;orthogonalLoop=1;jettySize=auto;html=1;entryX=1;entryY=1;entryDx=0;entryDy=0;startArrow=none;startFill=0;endArrow=none;endFill=0;" edge="1" parent="1" source="9bpLhuy6PvnF7bamDNjo-2" target="9bpLhuy6PvnF7bamDNjo-45">
          <mxGeometry relative="1" as="geometry" />
        </mxCell>
        <mxCell id="9bpLhuy6PvnF7bamDNjo-52" style="edgeStyle=none;rounded=0;orthogonalLoop=1;jettySize=auto;html=1;entryX=1;entryY=0.5;entryDx=0;entryDy=0;startArrow=none;startFill=0;endArrow=none;endFill=0;" edge="1" parent="1" source="9bpLhuy6PvnF7bamDNjo-2" target="9bpLhuy6PvnF7bamDNjo-43">
          <mxGeometry relative="1" as="geometry" />
        </mxCell>
        <mxCell id="9bpLhuy6PvnF7bamDNjo-2" value="customer" style="shape=umlActor;verticalLabelPosition=bottom;verticalAlign=top;html=1;outlineConnect=0;" vertex="1" parent="1">
          <mxGeometry x="890" y="-210" width="30" height="60" as="geometry" />
        </mxCell>
        <mxCell id="9bpLhuy6PvnF7bamDNjo-30" style="edgeStyle=none;rounded=0;orthogonalLoop=1;jettySize=auto;html=1;endArrow=none;endFill=0;" edge="1" parent="1" source="9bpLhuy6PvnF7bamDNjo-5" target="9bpLhuy6PvnF7bamDNjo-28">
          <mxGeometry relative="1" as="geometry" />
        </mxCell>
        <mxCell id="9bpLhuy6PvnF7bamDNjo-5" value="supplier" style="shape=umlActor;verticalLabelPosition=bottom;verticalAlign=top;html=1;outlineConnect=0;" vertex="1" parent="1">
          <mxGeometry x="950" y="960" width="30" height="60" as="geometry" />
        </mxCell>
        <mxCell id="9bpLhuy6PvnF7bamDNjo-56" style="edgeStyle=none;rounded=0;orthogonalLoop=1;jettySize=auto;html=1;entryX=0;entryY=0.5;entryDx=0;entryDy=0;startArrow=none;startFill=0;endArrow=none;endFill=0;" edge="1" parent="1" source="9bpLhuy6PvnF7bamDNjo-6" target="9bpLhuy6PvnF7bamDNjo-55">
          <mxGeometry relative="1" as="geometry" />
        </mxCell>
        <mxCell id="9bpLhuy6PvnF7bamDNjo-71" value="" style="edgeStyle=none;rounded=0;orthogonalLoop=1;jettySize=auto;html=1;startArrow=none;startFill=0;endArrow=none;endFill=0;" edge="1" parent="1" source="9bpLhuy6PvnF7bamDNjo-6" target="9bpLhuy6PvnF7bamDNjo-70">
          <mxGeometry relative="1" as="geometry" />
        </mxCell>
        <mxCell id="9bpLhuy6PvnF7bamDNjo-6" value="bank" style="shape=umlActor;verticalLabelPosition=bottom;verticalAlign=top;html=1;outlineConnect=0;" vertex="1" parent="1">
          <mxGeometry x="80" y="-870" width="30" height="60" as="geometry" />
        </mxCell>
        <mxCell id="9bpLhuy6PvnF7bamDNjo-60" style="edgeStyle=none;rounded=0;orthogonalLoop=1;jettySize=auto;html=1;entryX=0;entryY=0.5;entryDx=0;entryDy=0;startArrow=none;startFill=0;endArrow=none;endFill=0;exitX=1;exitY=0.3333333333333333;exitDx=0;exitDy=0;exitPerimeter=0;" edge="1" parent="1" source="9bpLhuy6PvnF7bamDNjo-7" target="9bpLhuy6PvnF7bamDNjo-42">
          <mxGeometry relative="1" as="geometry">
            <mxPoint x="120" y="190" as="sourcePoint" />
          </mxGeometry>
        </mxCell>
        <mxCell id="9bpLhuy6PvnF7bamDNjo-84" style="edgeStyle=none;rounded=0;orthogonalLoop=1;jettySize=auto;html=1;entryX=0;entryY=0.5;entryDx=0;entryDy=0;startArrow=none;startFill=0;endArrow=none;endFill=0;exitX=1;exitY=0.3333333333333333;exitDx=0;exitDy=0;exitPerimeter=0;" edge="1" parent="1" source="9bpLhuy6PvnF7bamDNjo-7" target="9bpLhuy6PvnF7bamDNjo-83">
          <mxGeometry relative="1" as="geometry">
            <mxPoint x="120" y="180" as="sourcePoint" />
          </mxGeometry>
        </mxCell>
        <mxCell id="9bpLhuy6PvnF7bamDNjo-7" value="system maintainer" style="shape=umlActor;verticalLabelPosition=bottom;verticalAlign=top;html=1;outlineConnect=0;" vertex="1" parent="1">
          <mxGeometry x="40" y="-165" width="30" height="60" as="geometry" />
        </mxCell>
        <mxCell id="9bpLhuy6PvnF7bamDNjo-77" style="edgeStyle=none;rounded=0;orthogonalLoop=1;jettySize=auto;html=1;entryX=1;entryY=0.5;entryDx=0;entryDy=0;startArrow=none;startFill=0;endArrow=none;endFill=0;" edge="1" parent="1" source="9bpLhuy6PvnF7bamDNjo-8" target="9bpLhuy6PvnF7bamDNjo-74">
          <mxGeometry relative="1" as="geometry" />
        </mxCell>
        <mxCell id="9bpLhuy6PvnF7bamDNjo-78" style="edgeStyle=none;rounded=0;orthogonalLoop=1;jettySize=auto;html=1;startArrow=none;startFill=0;endArrow=none;endFill=0;" edge="1" parent="1" source="9bpLhuy6PvnF7bamDNjo-8" target="9bpLhuy6PvnF7bamDNjo-75">
          <mxGeometry relative="1" as="geometry" />
        </mxCell>
        <mxCell id="9bpLhuy6PvnF7bamDNjo-8" value="delivery partner" style="shape=umlActor;verticalLabelPosition=bottom;verticalAlign=top;html=1;outlineConnect=0;" vertex="1" parent="1">
          <mxGeometry x="950" y="600" width="30" height="60" as="geometry" />
        </mxCell>
        <mxCell id="9bpLhuy6PvnF7bamDNjo-13" value="view current order" style="ellipse;whiteSpace=wrap;html=1;fillColor=none;align=center;" vertex="1" parent="1">
          <mxGeometry x="390" y="750" width="140" height="70" as="geometry" />
        </mxCell>
        <mxCell id="9bpLhuy6PvnF7bamDNjo-19" value="check available spare parts" style="ellipse;whiteSpace=wrap;html=1;fillColor=none;align=center;" vertex="1" parent="1">
          <mxGeometry x="410" y="10" width="140" height="70" as="geometry" />
        </mxCell>
        <mxCell id="9bpLhuy6PvnF7bamDNjo-31" style="edgeStyle=none;rounded=0;orthogonalLoop=1;jettySize=auto;html=1;endArrow=none;endFill=0;dashed=1;startArrow=open;startFill=0;" edge="1" parent="1" source="9bpLhuy6PvnF7bamDNjo-21" target="9bpLhuy6PvnF7bamDNjo-26">
          <mxGeometry relative="1" as="geometry" />
        </mxCell>
        <mxCell id="9bpLhuy6PvnF7bamDNjo-35" value="&amp;lt;&amp;lt;extend&amp;gt;&amp;gt;" style="edgeLabel;html=1;align=center;verticalAlign=middle;resizable=0;points=[];" vertex="1" connectable="0" parent="9bpLhuy6PvnF7bamDNjo-31">
          <mxGeometry x="-0.3568" y="1" relative="1" as="geometry">
            <mxPoint as="offset" />
          </mxGeometry>
        </mxCell>
        <mxCell id="9bpLhuy6PvnF7bamDNjo-32" style="edgeStyle=none;rounded=0;orthogonalLoop=1;jettySize=auto;html=1;entryX=0.5;entryY=1;entryDx=0;entryDy=0;endArrow=none;endFill=0;dashed=1;startArrow=open;startFill=0;" edge="1" parent="1" source="9bpLhuy6PvnF7bamDNjo-21" target="9bpLhuy6PvnF7bamDNjo-25">
          <mxGeometry relative="1" as="geometry" />
        </mxCell>
        <mxCell id="9bpLhuy6PvnF7bamDNjo-34" value="&amp;lt;&amp;lt;extend&amp;gt;&amp;gt;" style="edgeLabel;html=1;align=center;verticalAlign=middle;resizable=0;points=[];" vertex="1" connectable="0" parent="9bpLhuy6PvnF7bamDNjo-32">
          <mxGeometry x="-0.3393" y="1" relative="1" as="geometry">
            <mxPoint as="offset" />
          </mxGeometry>
        </mxCell>
        <mxCell id="9bpLhuy6PvnF7bamDNjo-33" style="edgeStyle=none;rounded=0;orthogonalLoop=1;jettySize=auto;html=1;exitX=0.043;exitY=0.343;exitDx=0;exitDy=0;entryX=1;entryY=0.5;entryDx=0;entryDy=0;endArrow=none;endFill=0;dashed=1;startArrow=open;startFill=0;exitPerimeter=0;" edge="1" parent="1" source="9bpLhuy6PvnF7bamDNjo-21" target="9bpLhuy6PvnF7bamDNjo-24">
          <mxGeometry relative="1" as="geometry" />
        </mxCell>
        <mxCell id="9bpLhuy6PvnF7bamDNjo-36" value="&amp;lt;&amp;lt;extend&amp;gt;&amp;gt;" style="edgeLabel;html=1;align=center;verticalAlign=middle;resizable=0;points=[];" vertex="1" connectable="0" parent="9bpLhuy6PvnF7bamDNjo-33">
          <mxGeometry x="-0.46" y="-1" relative="1" as="geometry">
            <mxPoint x="-10" y="-8" as="offset" />
          </mxGeometry>
        </mxCell>
        <mxCell id="9bpLhuy6PvnF7bamDNjo-88" value="" style="edgeStyle=none;rounded=0;orthogonalLoop=1;jettySize=auto;html=1;startArrow=open;startFill=0;endArrow=none;endFill=0;dashed=1;" edge="1" parent="1" source="9bpLhuy6PvnF7bamDNjo-21" target="9bpLhuy6PvnF7bamDNjo-87">
          <mxGeometry relative="1" as="geometry" />
        </mxCell>
        <mxCell id="9bpLhuy6PvnF7bamDNjo-90" value="&amp;lt;&amp;lt;extend&amp;gt;&amp;gt;" style="edgeLabel;html=1;align=center;verticalAlign=middle;resizable=0;points=[];" vertex="1" connectable="0" parent="9bpLhuy6PvnF7bamDNjo-88">
          <mxGeometry x="-0.4481" y="-2" relative="1" as="geometry">
            <mxPoint as="offset" />
          </mxGeometry>
        </mxCell>
        <mxCell id="9bpLhuy6PvnF7bamDNjo-21" value="show reports" style="ellipse;whiteSpace=wrap;html=1;fillColor=none;align=center;" vertex="1" parent="1">
          <mxGeometry x="390" y="405" width="140" height="70" as="geometry" />
        </mxCell>
        <mxCell id="9bpLhuy6PvnF7bamDNjo-24" value="stock reports" style="ellipse;whiteSpace=wrap;html=1;fillColor=none;align=center;" vertex="1" parent="1">
          <mxGeometry x="190" y="330" width="110" height="50" as="geometry" />
        </mxCell>
        <mxCell id="9bpLhuy6PvnF7bamDNjo-25" value="payment reports" style="ellipse;whiteSpace=wrap;html=1;fillColor=none;align=center;" vertex="1" parent="1">
          <mxGeometry x="445" y="190" width="110" height="50" as="geometry" />
        </mxCell>
        <mxCell id="9bpLhuy6PvnF7bamDNjo-80" style="edgeStyle=none;rounded=0;orthogonalLoop=1;jettySize=auto;html=1;startArrow=open;startFill=0;endArrow=none;endFill=0;dashed=1;" edge="1" parent="1" source="9bpLhuy6PvnF7bamDNjo-26" target="9bpLhuy6PvnF7bamDNjo-74">
          <mxGeometry relative="1" as="geometry" />
        </mxCell>
        <mxCell id="9bpLhuy6PvnF7bamDNjo-81" value="&amp;lt;&amp;lt;include&amp;gt;&amp;gt;" style="edgeLabel;html=1;align=center;verticalAlign=middle;resizable=0;points=[];" vertex="1" connectable="0" parent="9bpLhuy6PvnF7bamDNjo-80">
          <mxGeometry x="0.3565" y="2" relative="1" as="geometry">
            <mxPoint as="offset" />
          </mxGeometry>
        </mxCell>
        <mxCell id="9bpLhuy6PvnF7bamDNjo-26" value="delivery reports" style="ellipse;whiteSpace=wrap;html=1;fillColor=none;align=center;" vertex="1" parent="1">
          <mxGeometry x="405" y="530" width="110" height="50" as="geometry" />
        </mxCell>
        <mxCell id="9bpLhuy6PvnF7bamDNjo-28" value="keep stocks" style="ellipse;whiteSpace=wrap;html=1;fillColor=none;align=center;" vertex="1" parent="1">
          <mxGeometry x="390" y="950" width="140" height="70" as="geometry" />
        </mxCell>
        <mxCell id="9bpLhuy6PvnF7bamDNjo-53" style="edgeStyle=none;rounded=0;orthogonalLoop=1;jettySize=auto;html=1;entryX=1;entryY=0;entryDx=0;entryDy=0;startArrow=open;startFill=0;endArrow=none;endFill=0;dashed=1;" edge="1" parent="1" source="9bpLhuy6PvnF7bamDNjo-39" target="9bpLhuy6PvnF7bamDNjo-21">
          <mxGeometry relative="1" as="geometry" />
        </mxCell>
        <mxCell id="9bpLhuy6PvnF7bamDNjo-54" value="&amp;lt;&amp;lt;include&amp;gt;&amp;gt;" style="edgeLabel;html=1;align=center;verticalAlign=middle;resizable=0;points=[];" vertex="1" connectable="0" parent="9bpLhuy6PvnF7bamDNjo-53">
          <mxGeometry x="-0.1269" y="1" relative="1" as="geometry">
            <mxPoint as="offset" />
          </mxGeometry>
        </mxCell>
        <mxCell id="9bpLhuy6PvnF7bamDNjo-39" value="make orders" style="ellipse;whiteSpace=wrap;html=1;fillColor=none;align=center;" vertex="1" parent="1">
          <mxGeometry x="540" y="90" width="140" height="70" as="geometry" />
        </mxCell>
        <mxCell id="9bpLhuy6PvnF7bamDNjo-40" value="comparison" style="ellipse;whiteSpace=wrap;html=1;fillColor=none;align=center;" vertex="1" parent="1">
          <mxGeometry x="410" y="-191" width="140" height="70" as="geometry" />
        </mxCell>
        <mxCell id="9bpLhuy6PvnF7bamDNjo-42" value="connect to customer service" style="ellipse;whiteSpace=wrap;html=1;fillColor=none;align=center;" vertex="1" parent="1">
          <mxGeometry x="410" y="-280" width="140" height="70" as="geometry" />
        </mxCell>
        <mxCell id="9bpLhuy6PvnF7bamDNjo-82" style="edgeStyle=none;rounded=0;orthogonalLoop=1;jettySize=auto;html=1;startArrow=none;startFill=0;endArrow=none;endFill=0;entryX=1;entryY=0.3333333333333333;entryDx=0;entryDy=0;entryPerimeter=0;" edge="1" parent="1" source="9bpLhuy6PvnF7bamDNjo-43" target="9bpLhuy6PvnF7bamDNjo-7">
          <mxGeometry relative="1" as="geometry">
            <mxPoint x="120" y="190" as="targetPoint" />
          </mxGeometry>
        </mxCell>
        <mxCell id="9bpLhuy6PvnF7bamDNjo-43" value="maintain account" style="ellipse;whiteSpace=wrap;html=1;fillColor=none;align=center;" vertex="1" parent="1">
          <mxGeometry x="290" y="-540" width="140" height="70" as="geometry" />
        </mxCell>
        <mxCell id="9bpLhuy6PvnF7bamDNjo-62" value="" style="edgeStyle=none;rounded=0;orthogonalLoop=1;jettySize=auto;html=1;startArrow=open;startFill=0;endArrow=none;endFill=0;dashed=1;" edge="1" parent="1" source="9bpLhuy6PvnF7bamDNjo-44" target="9bpLhuy6PvnF7bamDNjo-61">
          <mxGeometry relative="1" as="geometry" />
        </mxCell>
        <mxCell id="9bpLhuy6PvnF7bamDNjo-66" value="&amp;lt;&amp;lt;extend&amp;gt;&amp;gt;" style="edgeLabel;html=1;align=center;verticalAlign=middle;resizable=0;points=[];" vertex="1" connectable="0" parent="9bpLhuy6PvnF7bamDNjo-62">
          <mxGeometry x="0.3145" y="3" relative="1" as="geometry">
            <mxPoint as="offset" />
          </mxGeometry>
        </mxCell>
        <mxCell id="9bpLhuy6PvnF7bamDNjo-64" value="" style="edgeStyle=none;rounded=0;orthogonalLoop=1;jettySize=auto;html=1;startArrow=open;startFill=0;endArrow=none;endFill=0;dashed=1;" edge="1" parent="1" source="9bpLhuy6PvnF7bamDNjo-44" target="9bpLhuy6PvnF7bamDNjo-63">
          <mxGeometry relative="1" as="geometry" />
        </mxCell>
        <mxCell id="9bpLhuy6PvnF7bamDNjo-67" value="&amp;lt;&amp;lt;extend&amp;gt;&amp;gt;" style="edgeLabel;html=1;align=center;verticalAlign=middle;resizable=0;points=[];" vertex="1" connectable="0" parent="9bpLhuy6PvnF7bamDNjo-64">
          <mxGeometry x="0.3244" y="1" relative="1" as="geometry">
            <mxPoint as="offset" />
          </mxGeometry>
        </mxCell>
        <mxCell id="9bpLhuy6PvnF7bamDNjo-44" value="reviews" style="ellipse;whiteSpace=wrap;html=1;fillColor=none;align=center;" vertex="1" parent="1">
          <mxGeometry x="410" y="-100" width="140" height="70" as="geometry" />
        </mxCell>
        <mxCell id="9bpLhuy6PvnF7bamDNjo-58" style="edgeStyle=none;rounded=0;orthogonalLoop=1;jettySize=auto;html=1;startArrow=open;startFill=0;endArrow=none;endFill=0;dashed=1;" edge="1" parent="1" source="9bpLhuy6PvnF7bamDNjo-45" target="9bpLhuy6PvnF7bamDNjo-55">
          <mxGeometry relative="1" as="geometry" />
        </mxCell>
        <mxCell id="9bpLhuy6PvnF7bamDNjo-59" value="&amp;lt;&amp;lt;include&amp;gt;&amp;gt;" style="edgeLabel;html=1;align=center;verticalAlign=middle;resizable=0;points=[];" vertex="1" connectable="0" parent="9bpLhuy6PvnF7bamDNjo-58">
          <mxGeometry x="0.432" y="-1" relative="1" as="geometry">
            <mxPoint as="offset" />
          </mxGeometry>
        </mxCell>
        <mxCell id="9bpLhuy6PvnF7bamDNjo-45" value="make payments" style="ellipse;whiteSpace=wrap;html=1;fillColor=none;align=center;" vertex="1" parent="1">
          <mxGeometry x="510" y="-610" width="140" height="70" as="geometry" />
        </mxCell>
        <mxCell id="9bpLhuy6PvnF7bamDNjo-55" value="payment validation" style="ellipse;whiteSpace=wrap;html=1;fillColor=none;align=center;" vertex="1" parent="1">
          <mxGeometry x="410" y="-770" width="140" height="70" as="geometry" />
        </mxCell>
        <mxCell id="9bpLhuy6PvnF7bamDNjo-61" value="make reviews" style="ellipse;whiteSpace=wrap;html=1;fillColor=none;align=center;" vertex="1" parent="1">
          <mxGeometry x="230" y="-170" width="140" height="70" as="geometry" />
        </mxCell>
        <mxCell id="9bpLhuy6PvnF7bamDNjo-63" value="check reviews" style="ellipse;whiteSpace=wrap;html=1;fillColor=none;align=center;" vertex="1" parent="1">
          <mxGeometry x="210" y="-40" width="140" height="70" as="geometry" />
        </mxCell>
        <mxCell id="9bpLhuy6PvnF7bamDNjo-72" style="edgeStyle=none;rounded=0;orthogonalLoop=1;jettySize=auto;html=1;startArrow=open;startFill=0;endArrow=none;endFill=0;dashed=1;" edge="1" parent="1" source="9bpLhuy6PvnF7bamDNjo-70" target="9bpLhuy6PvnF7bamDNjo-25">
          <mxGeometry relative="1" as="geometry" />
        </mxCell>
        <mxCell id="9bpLhuy6PvnF7bamDNjo-73" value="&amp;lt;&amp;lt;include&amp;gt;&amp;gt;" style="edgeLabel;html=1;align=center;verticalAlign=middle;resizable=0;points=[];" vertex="1" connectable="0" parent="9bpLhuy6PvnF7bamDNjo-72">
          <mxGeometry x="0.6581" relative="1" as="geometry">
            <mxPoint as="offset" />
          </mxGeometry>
        </mxCell>
        <mxCell id="9bpLhuy6PvnF7bamDNjo-70" value="&lt;br&gt;create reports" style="ellipse;whiteSpace=wrap;html=1;verticalAlign=top;fillColor=none;" vertex="1" parent="1">
          <mxGeometry x="420" y="-890" width="120" height="60" as="geometry" />
        </mxCell>
        <mxCell id="9bpLhuy6PvnF7bamDNjo-74" value="delivery details" style="ellipse;whiteSpace=wrap;html=1;fillColor=none;align=center;" vertex="1" parent="1">
          <mxGeometry x="390" y="640" width="140" height="70" as="geometry" />
        </mxCell>
        <mxCell id="9bpLhuy6PvnF7bamDNjo-75" value="verified delivery" style="ellipse;whiteSpace=wrap;html=1;fillColor=none;align=center;" vertex="1" parent="1">
          <mxGeometry x="390" y="840" width="140" height="70" as="geometry" />
        </mxCell>
        <mxCell id="9bpLhuy6PvnF7bamDNjo-85" style="edgeStyle=none;rounded=0;orthogonalLoop=1;jettySize=auto;html=1;startArrow=open;startFill=0;endArrow=none;endFill=0;dashed=1;" edge="1" parent="1" source="9bpLhuy6PvnF7bamDNjo-83" target="9bpLhuy6PvnF7bamDNjo-87">
          <mxGeometry relative="1" as="geometry" />
        </mxCell>
        <mxCell id="9bpLhuy6PvnF7bamDNjo-89" value="&amp;lt;&amp;lt;include&amp;gt;&amp;gt;" style="edgeLabel;html=1;align=center;verticalAlign=middle;resizable=0;points=[];" vertex="1" connectable="0" parent="9bpLhuy6PvnF7bamDNjo-85">
          <mxGeometry x="-0.2361" y="2" relative="1" as="geometry">
            <mxPoint as="offset" />
          </mxGeometry>
        </mxCell>
        <mxCell id="9bpLhuy6PvnF7bamDNjo-83" value="system maintenance&amp;nbsp;" style="ellipse;whiteSpace=wrap;html=1;fillColor=none;align=center;" vertex="1" parent="1">
          <mxGeometry x="230" y="120" width="140" height="70" as="geometry" />
        </mxCell>
        <mxCell id="9bpLhuy6PvnF7bamDNjo-87" value="system performance reports" style="ellipse;whiteSpace=wrap;html=1;fillColor=none;align=center;" vertex="1" parent="1">
          <mxGeometry x="330" y="310" width="130" height="40" as="geometry" />
        </mxCell>
      </root>
    </mxGraphModel>
  </diagram>
</mxfile>
